<svg viewBox="0 0 329.9999694824219 199.99998474121094" xmlns="http://www.w3.org/2000/svg"><g><g><g><g><g><line x1="60" y1="176.984375" x2="55" y2="176.984375" style="visibility: inherit;" fill="rgb(0, 0, 0)" stroke="rgb(204, 204, 204)" stroke-width="1.176471px"></line><line x1="60" y1="157.31944444444443" x2="55" y2="157.31944444444443" style="visibility: inherit;" fill="rgb(0, 0, 0)" stroke="rgb(204, 204, 204)" stroke-width="1.176471px"></line><line x1="60" y1="137.65451388888889" x2="55" y2="137.65451388888889" style="visibility: inherit;" fill="rgb(0, 0, 0)" stroke="rgb(204, 204, 204)" stroke-width="1.176471px"></line><line x1="60" y1="117.98958333333334" x2="55" y2="117.98958333333334" style="visibility: inherit;" fill="rgb(0, 0, 0)" stroke="rgb(204, 204, 204)" stroke-width="1.176471px"></line><line x1="60" y1="98.3246527777778" x2="55" y2="98.3246527777778" style="visibility: inherit;" fill="rgb(0, 0, 0)" stroke="rgb(204, 204, 204)" stroke-width="1.176471px"></line><line x1="60" y1="78.65972222222224" x2="55" y2="78.65972222222224" style="visibility: inherit;" fill="rgb(0, 0, 0)" stroke="rgb(204, 204, 204)" stroke-width="1.176471px"></line><line x1="60" y1="58.99479166666669" x2="55" y2="58.99479166666669" style="visibility: inherit;" fill="rgb(0, 0, 0)" stroke="rgb(204, 204, 204)" stroke-width="1.176471px"></line><line x1="60" y1="39.32986111111113" x2="55" y2="39.32986111111113" style="visibility: inherit;" fill="rgb(0, 0, 0)" stroke="rgb(204, 204, 204)" stroke-width="1.176471px"></line><line x1="60" y1="19.664930555555564" x2="55" y2="19.664930555555564" style="visibility: inherit;" fill="rgb(0, 0, 0)" stroke="rgb(204, 204, 204)" stroke-width="1.176471px"></line><line x1="60" y1="0" x2="55" y2="0" style="visibility: inherit;" fill="rgb(0, 0, 0)" stroke="rgb(204, 204, 204)" stroke-width="1.176471px"></line></g><g transform="translate(50, 0)"><text x="0" y="176.984375" dx="0em" dy="0.3em" style="text-anchor: end; visibility: hidden; font-family: Roboto, sans-serif; font-size: 14.117646px; font-weight: 200;" fill="rgb(255, 255, 255)" stroke="none" stroke-width="1.176471px">5e-3</text><text x="0" y="157.31944444444443" dx="0em" dy="0.3em" style="text-anchor: end; visibility: inherit; font-family: Roboto, sans-serif; font-size: 14.117646px; font-weight: 200;" fill="rgb(255, 255, 255)" stroke="none" stroke-width="1.176471px">6e-3</text><text x="0" y="137.65451388888889" dx="0em" dy="0.3em" style="text-anchor: end; visibility: hidden; font-family: Roboto, sans-serif; font-size: 14.117646px; font-weight: 200;" fill="rgb(255, 255, 255)" stroke="none" stroke-width="1.176471px">7e-3</text><text x="0" y="117.98958333333334" dx="0em" dy="0.3em" style="text-anchor: end; visibility: inherit; font-family: Roboto, sans-serif; font-size: 14.117646px; font-weight: 200;" fill="rgb(255, 255, 255)" stroke="none" stroke-width="1.176471px">8e-3</text><text x="0" y="98.3246527777778" dx="0em" dy="0.3em" style="text-anchor: end; visibility: hidden; font-family: Roboto, sans-serif; font-size: 14.117646px; font-weight: 200;" fill="rgb(255, 255, 255)" stroke="none" stroke-width="1.176471px">9e-3</text><text x="0" y="78.65972222222224" dx="0em" dy="0.3em" style="text-anchor: end; visibility: inherit; font-family: Roboto, sans-serif; font-size: 14.117646px; font-weight: 200;" fill="rgb(255, 255, 255)" stroke="none" stroke-width="1.176471px">0.01</text><text x="0" y="58.99479166666669" dx="0em" dy="0.3em" style="text-anchor: end; visibility: hidden; font-family: Roboto, sans-serif; font-size: 14.117646px; font-weight: 200;" fill="rgb(255, 255, 255)" stroke="none" stroke-width="1.176471px">0.011</text><text x="0" y="39.32986111111113" dx="0em" dy="0.3em" style="text-anchor: end; visibility: inherit; font-family: Roboto, sans-serif; font-size: 14.117646px; font-weight: 200;" fill="rgb(255, 255, 255)" stroke="none" stroke-width="1.176471px">0.012</text><text x="0" y="19.664930555555564" dx="0em" dy="0.3em" style="text-anchor: end; visibility: hidden; font-family: Roboto, sans-serif; font-size: 14.117646px; font-weight: 200;" fill="rgb(255, 255, 255)" stroke="none" stroke-width="1.176471px">0.013</text><text x="0" y="0" dx="0em" dy="0.3em" style="text-anchor: end; visibility: hidden; font-family: Roboto, sans-serif; font-size: 14.117646px; font-weight: 200;" fill="rgb(255, 255, 255)" stroke="none" stroke-width="1.176471px">0.014</text></g><line x1="60" y1="0" x2="60" y2="176.984375" fill="rgb(0, 0, 0)" stroke="rgb(204, 204, 204)" stroke-width="1.176471px"></line></g></g><g transform="translate(60, 0)" clip-path="url(#clip_0)"><clipPath id="clip_0"><rect width="270" height="176"></rect></clipPath><g><g><g><line x1="0" y1="0" x2="0" y2="176.984375" fill="rgb(0, 0, 0)" stroke="rgb(189, 189, 189)" stroke-width="1.176471px" opacity="0.25"></line><line x1="30" y1="0" x2="30" y2="176.984375" fill="rgb(0, 0, 0)" stroke="rgb(189, 189, 189)" stroke-width="1.176471px" opacity="0.25"></line><line x1="60" y1="0" x2="60" y2="176.984375" fill="rgb(0, 0, 0)" stroke="rgb(189, 189, 189)" stroke-width="1.176471px" opacity="0.25"></line><line x1="90" y1="0" x2="90" y2="176.984375" fill="rgb(0, 0, 0)" stroke="rgb(189, 189, 189)" stroke-width="1.176471px" opacity="0.25"></line><line x1="120" y1="0" x2="120" y2="176.984375" fill="rgb(0, 0, 0)" stroke="rgb(189, 189, 189)" stroke-width="1.176471px" opacity="0.25"></line><line x1="150" y1="0" x2="150" y2="176.984375" fill="rgb(0, 0, 0)" stroke="rgb(189, 189, 189)" stroke-width="1.176471px" opacity="0.25"></line><line x1="180" y1="0" x2="180" y2="176.984375" fill="rgb(0, 0, 0)" stroke="rgb(189, 189, 189)" stroke-width="1.176471px" opacity="0.25"></line><line x1="210" y1="0" x2="210" y2="176.984375" fill="rgb(0, 0, 0)" stroke="rgb(189, 189, 189)" stroke-width="1.176471px" opacity="0.25"></line><line x1="240" y1="0" x2="240" y2="176.984375" fill="rgb(0, 0, 0)" stroke="rgb(189, 189, 189)" stroke-width="1.176471px" opacity="0.25"></line><line x1="270" y1="0" x2="270" y2="176.984375" fill="rgb(0, 0, 0)" stroke="rgb(189, 189, 189)" stroke-width="1.176471px" opacity="0.25"></line></g><g><line x1="0" y1="176.984375" x2="270" y2="176.984375" fill="rgb(0, 0, 0)" stroke="rgb(189, 189, 189)" stroke-width="1.176471px" opacity="0.25"></line><line x1="0" y1="157.31944444444443" x2="270" y2="157.31944444444443" fill="rgb(0, 0, 0)" stroke="rgb(189, 189, 189)" stroke-width="1.176471px" opacity="0.25"></line><line x1="0" y1="137.65451388888889" x2="270" y2="137.65451388888889" fill="rgb(0, 0, 0)" stroke="rgb(189, 189, 189)" stroke-width="1.176471px" opacity="0.25"></line><line x1="0" y1="117.98958333333334" x2="270" y2="117.98958333333334" fill="rgb(0, 0, 0)" stroke="rgb(189, 189, 189)" stroke-width="1.176471px" opacity="0.25"></line><line x1="0" y1="98.3246527777778" x2="270" y2="98.3246527777778" fill="rgb(0, 0, 0)" stroke="rgb(189, 189, 189)" stroke-width="1.176471px" opacity="0.25"></line><line x1="0" y1="78.65972222222224" x2="270" y2="78.65972222222224" fill="rgb(0, 0, 0)" stroke="rgb(189, 189, 189)" stroke-width="1.176471px" opacity="0.25"></line><line x1="0" y1="58.99479166666669" x2="270" y2="58.99479166666669" fill="rgb(0, 0, 0)" stroke="rgb(189, 189, 189)" stroke-width="1.176471px" opacity="0.25"></line><line x1="0" y1="39.32986111111113" x2="270" y2="39.32986111111113" fill="rgb(0, 0, 0)" stroke="rgb(189, 189, 189)" stroke-width="1.176471px" opacity="0.25"></line><line x1="0" y1="19.664930555555564" x2="270" y2="19.664930555555564" fill="rgb(0, 0, 0)" stroke="rgb(189, 189, 189)" stroke-width="1.176471px" opacity="0.25"></line><line x1="0" y1="0" x2="270" y2="0" fill="rgb(0, 0, 0)" stroke="rgb(189, 189, 189)" stroke-width="1.176471px" opacity="0.25"></line></g></g></g><g><g><line x1="0" y1="275.3090277777777" x2="270" y2="275.3090277777777" fill="rgb(0, 0, 0)" stroke="rgb(153, 153, 153)" stroke-width="1.764706px"></line></g></g><g><g><line x1="30" y1="0" x2="30" y2="176.984375" fill="rgb(0, 0, 0)" stroke="rgb(153, 153, 153)" stroke-width="1.764706px"></line></g></g><g><g><g><g><g><path stroke="rgb(255, 112, 67)" stroke-width="2.352941px" d="M38.99999999999999,-30.656150759218168L42,8.847545767664213L45,35.86083135306455L48,54.00131014727027L51,67.40072137972432L54,76.49568713099823L57,84.18980750333574L60,89.96532868649427L63,93.77681500561744L66,96.76409344017877L69,101.20300943096908L72,104.25411131924257L75,105.34249802930292L77.99999999999999,108.36632066621587L81,111.49104173436665L84,113.81069419269532L87,115.84506344826649L90,116.37977028284483L93,118.63810674518147L96,119.73462018129182L99,121.44075932010189L102,121.94437696291413L105,122.89570142622078L108,123.02359030238624L111,123.27985965654271L114,125.07474529432321L117,126.49484411401782L120,127.12885200394267L123,130.1348266960935L126,130.34804793473793L129,130.74990174088703L132,132.06917140744116L135,133.30200386341332L138,134.94758452987136L141,134.24113353629917L144,135.39681713775227L147,136.88858835059554L150,138.42203223776383L153,139.11979845777694L155.99999999999997,139.7556852139563L159,140.94260005880352L162,140.7415896300005L165,140.81131754127836L168,142.22161677807603L171,143.57694012938987L174,143.616409610075L177,144.83398098720875L180,145.10631233325455L183,146.19165039673464L186,147.52075319389215L189,147.47575275947113L192,148.42137134506777L195,149.42793997305543L198,149.5894493512807L201,149.6653556943368L204,150.1181053937898L207,150.97831755979675L210,151.1205015677188L213,151.49562626500284L216,152.1877730672977L219,153.52020569624048L222,154.259799183301L225,154.65687554873548L228,156.03806773904168L231,157.1921345953977L234,157.47207961867568L237,158.1437181010462L240,158.11118856986204L243,158.05385529092698L246,159.36350106379479L249.00000000000003,160.07663899036962L252,161.1468478269558" style="fill: none;" fill="none"></path></g></g></g></g><g opacity="0.2"><g><g><g><path stroke="rgb(255, 112, 67)" stroke-width="2.352941px" d="M36,-17.20795646822076L38.99999999999999,34.06795059025496L42,60.42357195316195L45,73.22993010048394L48,79.9424850706451L51,86.93719159099017L54,89.90899500797968L57,95.61467955269231L60,98.57622690917924L63,99.47330254406877L66,101.23525710962713L69,107.85268711862673L72,108.82717769591709L75,106.9743104797607L77.99999999999999,112.90077504118544L81,116.17732997025209L84,117.2898195044836L87,118.89643138221518L90,117.18180121011878L93,122.02553712716326L96,121.37936868671227L99,123.99994781747228L102,122.6997998476339L105,124.32268406421645L108,123.21542328940188L111,123.66426329434357L114,127.76707209765058L117,128.62499155869267L120,128.079863628586L123,134.64378813623142L126,130.66787976725027L129,131.3526824213267L132,134.04807585057443L135,135.1512525155817L138,137.41595550409858L141,133.18145705249884L144,137.13034253349502L147,139.12624516487512L150,140.72219806544146L153,140.1664477869571L155.99999999999997,140.7095153477664L159,142.7229723255603L162,140.4400739868482L165,140.91590940818423L168,144.33706563314064L171,145.6099251562846L174,143.67561383110134L177,146.6603380528848L180,145.5148093523199L183,147.8196574919469L186,149.51440738962265L189,147.4082521078397L192,149.83979922346126L195,150.93779291503597L198,149.83171341861856L201,149.7792152089209L204,150.79722994296915L207,152.26863580880712L210,151.33377757960181L213,152.0583133109289L216,153.22599327074002L219,155.51885463965462L222,155.36918941389175L225,155.25249009688721L228,158.1098560245009L231,158.92323487993175L234,157.89199715359265L237,159.15117582460192L240,158.06239427308577L243,157.96785537252435L246,161.32796972309654L249.00000000000003,161.14634588023182L252,162.75216108183506" style="fill: none;" fill="none"></path></g></g></g></g></g></g><g transform="translate(60, 176)" clip-path="url(#clip_1)"><clipPath id="clip_1"><rect width="270" height="23"></rect></clipPath><g><g><line x1="0" y1="0" x2="0" y2="5" style="visibility: inherit;" fill="rgb(0, 0, 0)" stroke="rgb(204, 204, 204)" stroke-width="1.176471px"></line><line x1="30" y1="0" x2="30" y2="5" style="visibility: inherit;" fill="rgb(0, 0, 0)" stroke="rgb(204, 204, 204)" stroke-width="1.176471px"></line><line x1="60" y1="0" x2="60" y2="5" style="visibility: inherit;" fill="rgb(0, 0, 0)" stroke="rgb(204, 204, 204)" stroke-width="1.176471px"></line><line x1="90" y1="0" x2="90" y2="5" style="visibility: inherit;" fill="rgb(0, 0, 0)" stroke="rgb(204, 204, 204)" stroke-width="1.176471px"></line><line x1="120" y1="0" x2="120" y2="5" style="visibility: inherit;" fill="rgb(0, 0, 0)" stroke="rgb(204, 204, 204)" stroke-width="1.176471px"></line><line x1="150" y1="0" x2="150" y2="5" style="visibility: inherit;" fill="rgb(0, 0, 0)" stroke="rgb(204, 204, 204)" stroke-width="1.176471px"></line><line x1="180" y1="0" x2="180" y2="5" style="visibility: inherit;" fill="rgb(0, 0, 0)" stroke="rgb(204, 204, 204)" stroke-width="1.176471px"></line><line x1="210" y1="0" x2="210" y2="5" style="visibility: inherit;" fill="rgb(0, 0, 0)" stroke="rgb(204, 204, 204)" stroke-width="1.176471px"></line><line x1="240" y1="0" x2="240" y2="5" style="visibility: inherit;" fill="rgb(0, 0, 0)" stroke="rgb(204, 204, 204)" stroke-width="1.176471px"></line><line x1="270" y1="0" x2="270" y2="5" style="visibility: inherit;" fill="rgb(0, 0, 0)" stroke="rgb(204, 204, 204)" stroke-width="1.176471px"></line></g><g transform="translate(0, 8)"><text x="0" y="0" dx="0em" dy="0.95em" style="text-anchor: middle; visibility: hidden; font-family: Roboto, sans-serif; font-size: 14.117646px; font-weight: 200;" fill="rgb(255, 255, 255)" stroke="none" stroke-width="1.176471px">-10</text><text x="30" y="0" dx="0em" dy="0.95em" style="text-anchor: middle; visibility: inherit; font-family: Roboto, sans-serif; font-size: 14.117646px; font-weight: 200;" fill="rgb(255, 255, 255)" stroke="none" stroke-width="1.176471px">0</text><text x="60" y="0" dx="0em" dy="0.95em" style="text-anchor: middle; visibility: inherit; font-family: Roboto, sans-serif; font-size: 14.117646px; font-weight: 200;" fill="rgb(255, 255, 255)" stroke="none" stroke-width="1.176471px">10</text><text x="90" y="0" dx="0em" dy="0.95em" style="text-anchor: middle; visibility: inherit; font-family: Roboto, sans-serif; font-size: 14.117646px; font-weight: 200;" fill="rgb(255, 255, 255)" stroke="none" stroke-width="1.176471px">20</text><text x="120" y="0" dx="0em" dy="0.95em" style="text-anchor: middle; visibility: inherit; font-family: Roboto, sans-serif; font-size: 14.117646px; font-weight: 200;" fill="rgb(255, 255, 255)" stroke="none" stroke-width="1.176471px">30</text><text x="150" y="0" dx="0em" dy="0.95em" style="text-anchor: middle; visibility: inherit; font-family: Roboto, sans-serif; font-size: 14.117646px; font-weight: 200;" fill="rgb(255, 255, 255)" stroke="none" stroke-width="1.176471px">40</text><text x="180" y="0" dx="0em" dy="0.95em" style="text-anchor: middle; visibility: inherit; font-family: Roboto, sans-serif; font-size: 14.117646px; font-weight: 200;" fill="rgb(255, 255, 255)" stroke="none" stroke-width="1.176471px">50</text><text x="210" y="0" dx="0em" dy="0.95em" style="text-anchor: middle; visibility: inherit; font-family: Roboto, sans-serif; font-size: 14.117646px; font-weight: 200;" fill="rgb(255, 255, 255)" stroke="none" stroke-width="1.176471px">60</text><text x="240" y="0" dx="0em" dy="0.95em" style="text-anchor: middle; visibility: inherit; font-family: Roboto, sans-serif; font-size: 14.117646px; font-weight: 200;" fill="rgb(255, 255, 255)" stroke="none" stroke-width="1.176471px">70</text><text x="270" y="0" dx="0em" dy="0.95em" style="text-anchor: middle; visibility: hidden; font-family: Roboto, sans-serif; font-size: 14.117646px; font-weight: 200;" fill="rgb(255, 255, 255)" stroke="none" stroke-width="1.176471px">80</text></g><line x1="0" y1="0" x2="270" y2="0" fill="rgb(0, 0, 0)" stroke="rgb(204, 204, 204)" stroke-width="1.176471px"></line></g></g></g></g></svg>