<svg viewBox="0 0 329.9999694824219 199.99998474121094" xmlns="http://www.w3.org/2000/svg"><g><g><g><g><g><line x1="60" y1="176.984375" x2="55" y2="176.984375" style="visibility: inherit;" fill="rgb(0, 0, 0)" stroke="rgb(204, 204, 204)" stroke-width="1.176471px"></line><line x1="60" y1="162.23567708333331" x2="55" y2="162.23567708333331" style="visibility: inherit;" fill="rgb(0, 0, 0)" stroke="rgb(204, 204, 204)" stroke-width="1.176471px"></line><line x1="60" y1="147.48697916666666" x2="55" y2="147.48697916666666" style="visibility: inherit;" fill="rgb(0, 0, 0)" stroke="rgb(204, 204, 204)" stroke-width="1.176471px"></line><line x1="60" y1="132.73828125" x2="55" y2="132.73828125" style="visibility: inherit;" fill="rgb(0, 0, 0)" stroke="rgb(204, 204, 204)" stroke-width="1.176471px"></line><line x1="60" y1="117.98958333333333" x2="55" y2="117.98958333333333" style="visibility: inherit;" fill="rgb(0, 0, 0)" stroke="rgb(204, 204, 204)" stroke-width="1.176471px"></line><line x1="60" y1="103.24088541666666" x2="55" y2="103.24088541666666" style="visibility: inherit;" fill="rgb(0, 0, 0)" stroke="rgb(204, 204, 204)" stroke-width="1.176471px"></line><line x1="60" y1="88.4921875" x2="55" y2="88.4921875" style="visibility: inherit;" fill="rgb(0, 0, 0)" stroke="rgb(204, 204, 204)" stroke-width="1.176471px"></line><line x1="60" y1="73.74348958333333" x2="55" y2="73.74348958333333" style="visibility: inherit;" fill="rgb(0, 0, 0)" stroke="rgb(204, 204, 204)" stroke-width="1.176471px"></line><line x1="60" y1="58.99479166666665" x2="55" y2="58.99479166666665" style="visibility: inherit;" fill="rgb(0, 0, 0)" stroke="rgb(204, 204, 204)" stroke-width="1.176471px"></line><line x1="60" y1="44.24609375" x2="55" y2="44.24609375" style="visibility: inherit;" fill="rgb(0, 0, 0)" stroke="rgb(204, 204, 204)" stroke-width="1.176471px"></line><line x1="60" y1="29.497395833333325" x2="55" y2="29.497395833333325" style="visibility: inherit;" fill="rgb(0, 0, 0)" stroke="rgb(204, 204, 204)" stroke-width="1.176471px"></line><line x1="60" y1="14.748697916666654" x2="55" y2="14.748697916666654" style="visibility: inherit;" fill="rgb(0, 0, 0)" stroke="rgb(204, 204, 204)" stroke-width="1.176471px"></line><line x1="60" y1="0" x2="55" y2="0" style="visibility: inherit;" fill="rgb(0, 0, 0)" stroke="rgb(204, 204, 204)" stroke-width="1.176471px"></line></g><g transform="translate(50, 0)"><text x="0" y="176.984375" dx="0em" dy="0.3em" style="text-anchor: end; visibility: hidden; font-family: Roboto, sans-serif; font-size: 14.117646px; font-weight: 200;" fill="rgb(255, 255, 255)" stroke="none" stroke-width="1.176471px">0</text><text x="0" y="162.23567708333331" dx="0em" dy="0.3em" style="text-anchor: end; visibility: inherit; font-family: Roboto, sans-serif; font-size: 14.117646px; font-weight: 200;" fill="rgb(255, 255, 255)" stroke="none" stroke-width="1.176471px">5e-3</text><text x="0" y="147.48697916666666" dx="0em" dy="0.3em" style="text-anchor: end; visibility: hidden; font-family: Roboto, sans-serif; font-size: 14.117646px; font-weight: 200;" fill="rgb(255, 255, 255)" stroke="none" stroke-width="1.176471px">0.01</text><text x="0" y="132.73828125" dx="0em" dy="0.3em" style="text-anchor: end; visibility: inherit; font-family: Roboto, sans-serif; font-size: 14.117646px; font-weight: 200;" fill="rgb(255, 255, 255)" stroke="none" stroke-width="1.176471px">0.015</text><text x="0" y="117.98958333333333" dx="0em" dy="0.3em" style="text-anchor: end; visibility: hidden; font-family: Roboto, sans-serif; font-size: 14.117646px; font-weight: 200;" fill="rgb(255, 255, 255)" stroke="none" stroke-width="1.176471px">0.02</text><text x="0" y="103.24088541666666" dx="0em" dy="0.3em" style="text-anchor: end; visibility: inherit; font-family: Roboto, sans-serif; font-size: 14.117646px; font-weight: 200;" fill="rgb(255, 255, 255)" stroke="none" stroke-width="1.176471px">0.025</text><text x="0" y="88.4921875" dx="0em" dy="0.3em" style="text-anchor: end; visibility: hidden; font-family: Roboto, sans-serif; font-size: 14.117646px; font-weight: 200;" fill="rgb(255, 255, 255)" stroke="none" stroke-width="1.176471px">0.03</text><text x="0" y="73.74348958333333" dx="0em" dy="0.3em" style="text-anchor: end; visibility: inherit; font-family: Roboto, sans-serif; font-size: 14.117646px; font-weight: 200;" fill="rgb(255, 255, 255)" stroke="none" stroke-width="1.176471px">0.035</text><text x="0" y="58.99479166666665" dx="0em" dy="0.3em" style="text-anchor: end; visibility: hidden; font-family: Roboto, sans-serif; font-size: 14.117646px; font-weight: 200;" fill="rgb(255, 255, 255)" stroke="none" stroke-width="1.176471px">0.04</text><text x="0" y="44.24609375" dx="0em" dy="0.3em" style="text-anchor: end; visibility: inherit; font-family: Roboto, sans-serif; font-size: 14.117646px; font-weight: 200;" fill="rgb(255, 255, 255)" stroke="none" stroke-width="1.176471px">0.045</text><text x="0" y="29.497395833333325" dx="0em" dy="0.3em" style="text-anchor: end; visibility: hidden; font-family: Roboto, sans-serif; font-size: 14.117646px; font-weight: 200;" fill="rgb(255, 255, 255)" stroke="none" stroke-width="1.176471px">0.05</text><text x="0" y="14.748697916666654" dx="0em" dy="0.3em" style="text-anchor: end; visibility: inherit; font-family: Roboto, sans-serif; font-size: 14.117646px; font-weight: 200;" fill="rgb(255, 255, 255)" stroke="none" stroke-width="1.176471px">0.055</text><text x="0" y="0" dx="0em" dy="0.3em" style="text-anchor: end; visibility: hidden; font-family: Roboto, sans-serif; font-size: 14.117646px; font-weight: 200;" fill="rgb(255, 255, 255)" stroke="none" stroke-width="1.176471px">0.06</text></g><line x1="60" y1="0" x2="60" y2="176.984375" fill="rgb(0, 0, 0)" stroke="rgb(204, 204, 204)" stroke-width="1.176471px"></line></g></g><g transform="translate(60, 0)" clip-path="url(#clip_0)"><clipPath id="clip_0"><rect width="270" height="176"></rect></clipPath><g><g><g><line x1="0" y1="0" x2="0" y2="176.984375" fill="rgb(0, 0, 0)" stroke="rgb(189, 189, 189)" stroke-width="1.176471px" opacity="0.25"></line><line x1="30" y1="0" x2="30" y2="176.984375" fill="rgb(0, 0, 0)" stroke="rgb(189, 189, 189)" stroke-width="1.176471px" opacity="0.25"></line><line x1="60" y1="0" x2="60" y2="176.984375" fill="rgb(0, 0, 0)" stroke="rgb(189, 189, 189)" stroke-width="1.176471px" opacity="0.25"></line><line x1="90" y1="0" x2="90" y2="176.984375" fill="rgb(0, 0, 0)" stroke="rgb(189, 189, 189)" stroke-width="1.176471px" opacity="0.25"></line><line x1="120" y1="0" x2="120" y2="176.984375" fill="rgb(0, 0, 0)" stroke="rgb(189, 189, 189)" stroke-width="1.176471px" opacity="0.25"></line><line x1="150" y1="0" x2="150" y2="176.984375" fill="rgb(0, 0, 0)" stroke="rgb(189, 189, 189)" stroke-width="1.176471px" opacity="0.25"></line><line x1="180" y1="0" x2="180" y2="176.984375" fill="rgb(0, 0, 0)" stroke="rgb(189, 189, 189)" stroke-width="1.176471px" opacity="0.25"></line><line x1="210" y1="0" x2="210" y2="176.984375" fill="rgb(0, 0, 0)" stroke="rgb(189, 189, 189)" stroke-width="1.176471px" opacity="0.25"></line><line x1="240" y1="0" x2="240" y2="176.984375" fill="rgb(0, 0, 0)" stroke="rgb(189, 189, 189)" stroke-width="1.176471px" opacity="0.25"></line><line x1="270" y1="0" x2="270" y2="176.984375" fill="rgb(0, 0, 0)" stroke="rgb(189, 189, 189)" stroke-width="1.176471px" opacity="0.25"></line></g><g><line x1="0" y1="176.984375" x2="270" y2="176.984375" fill="rgb(0, 0, 0)" stroke="rgb(189, 189, 189)" stroke-width="1.176471px" opacity="0.25"></line><line x1="0" y1="162.23567708333331" x2="270" y2="162.23567708333331" fill="rgb(0, 0, 0)" stroke="rgb(189, 189, 189)" stroke-width="1.176471px" opacity="0.25"></line><line x1="0" y1="147.48697916666666" x2="270" y2="147.48697916666666" fill="rgb(0, 0, 0)" stroke="rgb(189, 189, 189)" stroke-width="1.176471px" opacity="0.25"></line><line x1="0" y1="132.73828125" x2="270" y2="132.73828125" fill="rgb(0, 0, 0)" stroke="rgb(189, 189, 189)" stroke-width="1.176471px" opacity="0.25"></line><line x1="0" y1="117.98958333333333" x2="270" y2="117.98958333333333" fill="rgb(0, 0, 0)" stroke="rgb(189, 189, 189)" stroke-width="1.176471px" opacity="0.25"></line><line x1="0" y1="103.24088541666666" x2="270" y2="103.24088541666666" fill="rgb(0, 0, 0)" stroke="rgb(189, 189, 189)" stroke-width="1.176471px" opacity="0.25"></line><line x1="0" y1="88.4921875" x2="270" y2="88.4921875" fill="rgb(0, 0, 0)" stroke="rgb(189, 189, 189)" stroke-width="1.176471px" opacity="0.25"></line><line x1="0" y1="73.74348958333333" x2="270" y2="73.74348958333333" fill="rgb(0, 0, 0)" stroke="rgb(189, 189, 189)" stroke-width="1.176471px" opacity="0.25"></line><line x1="0" y1="58.99479166666665" x2="270" y2="58.99479166666665" fill="rgb(0, 0, 0)" stroke="rgb(189, 189, 189)" stroke-width="1.176471px" opacity="0.25"></line><line x1="0" y1="44.24609375" x2="270" y2="44.24609375" fill="rgb(0, 0, 0)" stroke="rgb(189, 189, 189)" stroke-width="1.176471px" opacity="0.25"></line><line x1="0" y1="29.497395833333325" x2="270" y2="29.497395833333325" fill="rgb(0, 0, 0)" stroke="rgb(189, 189, 189)" stroke-width="1.176471px" opacity="0.25"></line><line x1="0" y1="14.748697916666654" x2="270" y2="14.748697916666654" fill="rgb(0, 0, 0)" stroke="rgb(189, 189, 189)" stroke-width="1.176471px" opacity="0.25"></line><line x1="0" y1="0" x2="270" y2="0" fill="rgb(0, 0, 0)" stroke="rgb(189, 189, 189)" stroke-width="1.176471px" opacity="0.25"></line></g></g></g><g><g><line x1="0" y1="176.984375" x2="270" y2="176.984375" fill="rgb(0, 0, 0)" stroke="rgb(153, 153, 153)" stroke-width="1.764706px"></line></g></g><g><g><line x1="30" y1="0" x2="30" y2="176.984375" fill="rgb(0, 0, 0)" stroke="rgb(153, 153, 153)" stroke-width="1.764706px"></line></g></g><g><g><g><g><g><path stroke="rgb(255, 112, 67)" stroke-width="2.352941px" d="M38.99999999999999,-18.396048078427587L42,13.971504383277546L45,43.717279742293336L48,68.97405855569232L51,89.1100656621184L54,104.00990708905604L57,115.20008078006896L60,124.48606777053219L63,131.0345870046962L66,135.3179874235318L69,138.6483928933179L72,141.59282790148967L75,143.9696102068307L77.99999999999999,146.27639696417526L81,148.49328958325844L84,149.10103749364114L87,149.9550494559353L90,150.87624596226323L93,152.2483365223096L96,152.6952215799262L99,153.40180671191098L102,154.00020404139664L105,154.5419552112488L108,155.15853468931283L111,155.8492635376155L114,156.3832448941038L117,156.76535127123537L120,157.56801809270243L123,158.3001936581524L126,158.3931283379922L129,158.66487519024705L132,158.9438995633498L135,159.4274715376222L138,160.14948351049122L141,160.4063230788409L144,160.31397862970022L147,160.74564271347128L150,160.91101468582497L153,161.24522381178113L155.99999999999997,161.82458307160772L159,161.58017870656192L162,161.9993695387303L165,162.13438691189867L168,162.52366319690057L171,162.81271938324292L174,162.99838729321635L177,163.16354279945244L180,163.4402855394701L183,163.74800217636923L186,164.19256670077266L189,164.23816900059944L192,164.6908367557506L195,164.5493514959628L198,164.93426464841897L201,165.21281970759415L204,165.50715307562285L207,165.84258916330361L210,166.00152753395264L213,166.16925484680522L216,166.61853621310186L219,166.89858242283094L222,166.90430469462393L225,167.3309175824079L228,167.41912620086157L231,167.6429807077094L234,167.6715541606121L237,167.68870839684223L240,168.06530602920316L243,168.08540542007142L246,168.38732412581598L249.00000000000003,168.6875207401072L252,168.79823805341618" style="fill: none;" fill="none"></path></g></g></g></g><g opacity="0.2"><g><g><g><path stroke="rgb(255, 112, 67)" stroke-width="2.352941px" d="M36,-30.580700428768385L38.99999999999999,14.10559984769982L42,56.23058087727986L45,84.86639554294136L48,105.09165636731389L51,118.46855732895588L54,125.9842790485903L57,131.81618456362048L60,138.33082503767218L63,140.82172910345253L66,141.72910200623056L69,143.6374764869785L72,146.00601934092506L75,147.53310737381494L77.99999999999999,149.73560094534574L81,151.8180656430874L84,150.01256677493802L87,151.23598933930043L90,152.25799020114937L93,154.30642721315476L96,153.36554034338525L99,154.46167603971358L102,154.897795782473L105,155.35457965570578L108,156.083402328751L111,156.885355749638L114,157.18421643696394L117,157.3385106257483L120,158.77201805873L123,159.398456860649L126,158.53253034665732L129,159.0724954491646L132,159.36243611101236L135,160.15282948656142L138,161.23250145862403L141,160.7915824289812L144,160.17546195650357L147,161.39313883768529L150,161.15907264402387L153,161.7465375003133L155.99999999999997,162.69362196092942L159,161.2135721590991L162,162.62815578687395L165,162.33691297163023L168,163.10757762436697L171,163.24630366274022L174,163.27688915817026L177,163.4112760588032L180,163.85539964949322L183,164.20957713171566L186,164.8594134873759L189,164.30657245033944L192,165.36983838847664L195,164.33712360628124L198,165.511634377103L201,165.63065229635686L204,165.94865312766586L207,166.34574329482467L210,166.23993508992618L213,166.42084581608407L216,167.29245826254675L219,167.31865173742455L222,166.91288810231345L225,167.9708369140838L228,167.55143912854209L231,167.97876246798114L234,167.71441433996614L237,167.71443975118746L240,168.6302024777445L243,168.11555450637388L246,168.84020218443283L249.00000000000003,169.13781566154404L252,168.9643140233796" style="fill: none;" fill="none"></path></g></g></g></g></g></g><g transform="translate(60, 176)" clip-path="url(#clip_1)"><clipPath id="clip_1"><rect width="270" height="23"></rect></clipPath><g><g><line x1="0" y1="0" x2="0" y2="5" style="visibility: inherit;" fill="rgb(0, 0, 0)" stroke="rgb(204, 204, 204)" stroke-width="1.176471px"></line><line x1="30" y1="0" x2="30" y2="5" style="visibility: inherit;" fill="rgb(0, 0, 0)" stroke="rgb(204, 204, 204)" stroke-width="1.176471px"></line><line x1="60" y1="0" x2="60" y2="5" style="visibility: inherit;" fill="rgb(0, 0, 0)" stroke="rgb(204, 204, 204)" stroke-width="1.176471px"></line><line x1="90" y1="0" x2="90" y2="5" style="visibility: inherit;" fill="rgb(0, 0, 0)" stroke="rgb(204, 204, 204)" stroke-width="1.176471px"></line><line x1="120" y1="0" x2="120" y2="5" style="visibility: inherit;" fill="rgb(0, 0, 0)" stroke="rgb(204, 204, 204)" stroke-width="1.176471px"></line><line x1="150" y1="0" x2="150" y2="5" style="visibility: inherit;" fill="rgb(0, 0, 0)" stroke="rgb(204, 204, 204)" stroke-width="1.176471px"></line><line x1="180" y1="0" x2="180" y2="5" style="visibility: inherit;" fill="rgb(0, 0, 0)" stroke="rgb(204, 204, 204)" stroke-width="1.176471px"></line><line x1="210" y1="0" x2="210" y2="5" style="visibility: inherit;" fill="rgb(0, 0, 0)" stroke="rgb(204, 204, 204)" stroke-width="1.176471px"></line><line x1="240" y1="0" x2="240" y2="5" style="visibility: inherit;" fill="rgb(0, 0, 0)" stroke="rgb(204, 204, 204)" stroke-width="1.176471px"></line><line x1="270" y1="0" x2="270" y2="5" style="visibility: inherit;" fill="rgb(0, 0, 0)" stroke="rgb(204, 204, 204)" stroke-width="1.176471px"></line></g><g transform="translate(0, 8)"><text x="0" y="0" dx="0em" dy="0.95em" style="text-anchor: middle; visibility: hidden; font-family: Roboto, sans-serif; font-size: 14.117646px; font-weight: 200;" fill="rgb(255, 255, 255)" stroke="none" stroke-width="1.176471px">-10</text><text x="30" y="0" dx="0em" dy="0.95em" style="text-anchor: middle; visibility: inherit; font-family: Roboto, sans-serif; font-size: 14.117646px; font-weight: 200;" fill="rgb(255, 255, 255)" stroke="none" stroke-width="1.176471px">0</text><text x="60" y="0" dx="0em" dy="0.95em" style="text-anchor: middle; visibility: inherit; font-family: Roboto, sans-serif; font-size: 14.117646px; font-weight: 200;" fill="rgb(255, 255, 255)" stroke="none" stroke-width="1.176471px">10</text><text x="90" y="0" dx="0em" dy="0.95em" style="text-anchor: middle; visibility: inherit; font-family: Roboto, sans-serif; font-size: 14.117646px; font-weight: 200;" fill="rgb(255, 255, 255)" stroke="none" stroke-width="1.176471px">20</text><text x="120" y="0" dx="0em" dy="0.95em" style="text-anchor: middle; visibility: inherit; font-family: Roboto, sans-serif; font-size: 14.117646px; font-weight: 200;" fill="rgb(255, 255, 255)" stroke="none" stroke-width="1.176471px">30</text><text x="150" y="0" dx="0em" dy="0.95em" style="text-anchor: middle; visibility: inherit; font-family: Roboto, sans-serif; font-size: 14.117646px; font-weight: 200;" fill="rgb(255, 255, 255)" stroke="none" stroke-width="1.176471px">40</text><text x="180" y="0" dx="0em" dy="0.95em" style="text-anchor: middle; visibility: inherit; font-family: Roboto, sans-serif; font-size: 14.117646px; font-weight: 200;" fill="rgb(255, 255, 255)" stroke="none" stroke-width="1.176471px">50</text><text x="210" y="0" dx="0em" dy="0.95em" style="text-anchor: middle; visibility: inherit; font-family: Roboto, sans-serif; font-size: 14.117646px; font-weight: 200;" fill="rgb(255, 255, 255)" stroke="none" stroke-width="1.176471px">60</text><text x="240" y="0" dx="0em" dy="0.95em" style="text-anchor: middle; visibility: inherit; font-family: Roboto, sans-serif; font-size: 14.117646px; font-weight: 200;" fill="rgb(255, 255, 255)" stroke="none" stroke-width="1.176471px">70</text><text x="270" y="0" dx="0em" dy="0.95em" style="text-anchor: middle; visibility: hidden; font-family: Roboto, sans-serif; font-size: 14.117646px; font-weight: 200;" fill="rgb(255, 255, 255)" stroke="none" stroke-width="1.176471px">80</text></g><line x1="0" y1="0" x2="270" y2="0" fill="rgb(0, 0, 0)" stroke="rgb(204, 204, 204)" stroke-width="1.176471px"></line></g></g></g></g></svg>