<svg viewBox="0 0 329.9999694824219 199.99998474121094" xmlns="http://www.w3.org/2000/svg"><g><g><g><g><g><line x1="60" y1="176.984375" x2="55" y2="176.984375" style="visibility: inherit;" fill="rgb(0, 0, 0)" stroke="rgb(204, 204, 204)" stroke-width="1.176471px"></line><line x1="60" y1="151.70089285714286" x2="55" y2="151.70089285714286" style="visibility: inherit;" fill="rgb(0, 0, 0)" stroke="rgb(204, 204, 204)" stroke-width="1.176471px"></line><line x1="60" y1="126.4174107142857" x2="55" y2="126.4174107142857" style="visibility: inherit;" fill="rgb(0, 0, 0)" stroke="rgb(204, 204, 204)" stroke-width="1.176471px"></line><line x1="60" y1="101.13392857142858" x2="55" y2="101.13392857142858" style="visibility: inherit;" fill="rgb(0, 0, 0)" stroke="rgb(204, 204, 204)" stroke-width="1.176471px"></line><line x1="60" y1="75.85044642857142" x2="55" y2="75.85044642857142" style="visibility: inherit;" fill="rgb(0, 0, 0)" stroke="rgb(204, 204, 204)" stroke-width="1.176471px"></line><line x1="60" y1="50.566964285714285" x2="55" y2="50.566964285714285" style="visibility: inherit;" fill="rgb(0, 0, 0)" stroke="rgb(204, 204, 204)" stroke-width="1.176471px"></line><line x1="60" y1="25.28348214285717" x2="55" y2="25.28348214285717" style="visibility: inherit;" fill="rgb(0, 0, 0)" stroke="rgb(204, 204, 204)" stroke-width="1.176471px"></line><line x1="60" y1="0" x2="55" y2="0" style="visibility: inherit;" fill="rgb(0, 0, 0)" stroke="rgb(204, 204, 204)" stroke-width="1.176471px"></line></g><g transform="translate(50, 0)"><text x="0" y="176.984375" dx="0em" dy="0.3em" style="text-anchor: end; visibility: hidden; font-family: Roboto, sans-serif; font-size: 14.117646px; font-weight: 200;" fill="rgb(255, 255, 255)" stroke="none" stroke-width="1.176471px">0.015</text><text x="0" y="151.70089285714286" dx="0em" dy="0.3em" style="text-anchor: end; visibility: inherit; font-family: Roboto, sans-serif; font-size: 14.117646px; font-weight: 200;" fill="rgb(255, 255, 255)" stroke="none" stroke-width="1.176471px">0.02</text><text x="0" y="126.4174107142857" dx="0em" dy="0.3em" style="text-anchor: end; visibility: inherit; font-family: Roboto, sans-serif; font-size: 14.117646px; font-weight: 200;" fill="rgb(255, 255, 255)" stroke="none" stroke-width="1.176471px">0.025</text><text x="0" y="101.13392857142858" dx="0em" dy="0.3em" style="text-anchor: end; visibility: inherit; font-family: Roboto, sans-serif; font-size: 14.117646px; font-weight: 200;" fill="rgb(255, 255, 255)" stroke="none" stroke-width="1.176471px">0.03</text><text x="0" y="75.85044642857142" dx="0em" dy="0.3em" style="text-anchor: end; visibility: inherit; font-family: Roboto, sans-serif; font-size: 14.117646px; font-weight: 200;" fill="rgb(255, 255, 255)" stroke="none" stroke-width="1.176471px">0.035</text><text x="0" y="50.566964285714285" dx="0em" dy="0.3em" style="text-anchor: end; visibility: inherit; font-family: Roboto, sans-serif; font-size: 14.117646px; font-weight: 200;" fill="rgb(255, 255, 255)" stroke="none" stroke-width="1.176471px">0.04</text><text x="0" y="25.28348214285717" dx="0em" dy="0.3em" style="text-anchor: end; visibility: inherit; font-family: Roboto, sans-serif; font-size: 14.117646px; font-weight: 200;" fill="rgb(255, 255, 255)" stroke="none" stroke-width="1.176471px">0.045</text><text x="0" y="0" dx="0em" dy="0.3em" style="text-anchor: end; visibility: hidden; font-family: Roboto, sans-serif; font-size: 14.117646px; font-weight: 200;" fill="rgb(255, 255, 255)" stroke="none" stroke-width="1.176471px">0.05</text></g><line x1="60" y1="0" x2="60" y2="176.984375" fill="rgb(0, 0, 0)" stroke="rgb(204, 204, 204)" stroke-width="1.176471px"></line></g></g><g transform="translate(60, 0)" clip-path="url(#clip_0)"><clipPath id="clip_0"><rect width="270" height="176"></rect></clipPath><g><g><g><line x1="0" y1="0" x2="0" y2="176.984375" fill="rgb(0, 0, 0)" stroke="rgb(189, 189, 189)" stroke-width="1.176471px" opacity="0.25"></line><line x1="30" y1="0" x2="30" y2="176.984375" fill="rgb(0, 0, 0)" stroke="rgb(189, 189, 189)" stroke-width="1.176471px" opacity="0.25"></line><line x1="60" y1="0" x2="60" y2="176.984375" fill="rgb(0, 0, 0)" stroke="rgb(189, 189, 189)" stroke-width="1.176471px" opacity="0.25"></line><line x1="90" y1="0" x2="90" y2="176.984375" fill="rgb(0, 0, 0)" stroke="rgb(189, 189, 189)" stroke-width="1.176471px" opacity="0.25"></line><line x1="120" y1="0" x2="120" y2="176.984375" fill="rgb(0, 0, 0)" stroke="rgb(189, 189, 189)" stroke-width="1.176471px" opacity="0.25"></line><line x1="150" y1="0" x2="150" y2="176.984375" fill="rgb(0, 0, 0)" stroke="rgb(189, 189, 189)" stroke-width="1.176471px" opacity="0.25"></line><line x1="180" y1="0" x2="180" y2="176.984375" fill="rgb(0, 0, 0)" stroke="rgb(189, 189, 189)" stroke-width="1.176471px" opacity="0.25"></line><line x1="210" y1="0" x2="210" y2="176.984375" fill="rgb(0, 0, 0)" stroke="rgb(189, 189, 189)" stroke-width="1.176471px" opacity="0.25"></line><line x1="240" y1="0" x2="240" y2="176.984375" fill="rgb(0, 0, 0)" stroke="rgb(189, 189, 189)" stroke-width="1.176471px" opacity="0.25"></line><line x1="270" y1="0" x2="270" y2="176.984375" fill="rgb(0, 0, 0)" stroke="rgb(189, 189, 189)" stroke-width="1.176471px" opacity="0.25"></line></g><g><line x1="0" y1="176.984375" x2="270" y2="176.984375" fill="rgb(0, 0, 0)" stroke="rgb(189, 189, 189)" stroke-width="1.176471px" opacity="0.25"></line><line x1="0" y1="151.70089285714286" x2="270" y2="151.70089285714286" fill="rgb(0, 0, 0)" stroke="rgb(189, 189, 189)" stroke-width="1.176471px" opacity="0.25"></line><line x1="0" y1="126.4174107142857" x2="270" y2="126.4174107142857" fill="rgb(0, 0, 0)" stroke="rgb(189, 189, 189)" stroke-width="1.176471px" opacity="0.25"></line><line x1="0" y1="101.13392857142858" x2="270" y2="101.13392857142858" fill="rgb(0, 0, 0)" stroke="rgb(189, 189, 189)" stroke-width="1.176471px" opacity="0.25"></line><line x1="0" y1="75.85044642857142" x2="270" y2="75.85044642857142" fill="rgb(0, 0, 0)" stroke="rgb(189, 189, 189)" stroke-width="1.176471px" opacity="0.25"></line><line x1="0" y1="50.566964285714285" x2="270" y2="50.566964285714285" fill="rgb(0, 0, 0)" stroke="rgb(189, 189, 189)" stroke-width="1.176471px" opacity="0.25"></line><line x1="0" y1="25.28348214285717" x2="270" y2="25.28348214285717" fill="rgb(0, 0, 0)" stroke="rgb(189, 189, 189)" stroke-width="1.176471px" opacity="0.25"></line><line x1="0" y1="0" x2="270" y2="0" fill="rgb(0, 0, 0)" stroke="rgb(189, 189, 189)" stroke-width="1.176471px" opacity="0.25"></line></g></g></g><g><g><line x1="0" y1="252.8348214285714" x2="270" y2="252.8348214285714" fill="rgb(0, 0, 0)" stroke="rgb(153, 153, 153)" stroke-width="1.764706px"></line></g></g><g><g><line x1="30" y1="0" x2="30" y2="176.984375" fill="rgb(0, 0, 0)" stroke="rgb(153, 153, 153)" stroke-width="1.764706px"></line></g></g><g><g><g><g><g><path stroke="rgb(255, 112, 67)" stroke-width="2.352941px" d="M38.99999999999999,-6.0141441797883175L42,12.51477923609954L45,25.495223950226197L48,35.011430179177566L51,42.781130781551425L54,50.96017475097344L57,58.844819516655384L60,65.55908886957995L63,70.41479697288294L66,74.94696338767196L69,79.70014118147255L72,83.89884779633586L75,87.81418057453129L77.99999999999999,90.66015080960729L81,93.94208154839448L84,96.24461677239499L87,97.92334742557016L90,100.64225318583841L93,102.95951459206607L96,104.75327117140729L99,106.49853502654032L102,108.1502054140879L105,109.3305950520988L108,111.3699885368053L111,113.17152167847311L114,114.78184717242962L117,116.51098641237708L120,118.35031751256308L123,119.64542724022877L126,121.18711375394541L129,122.0072789520743L132,123.14973705014205L135,124.6953923044001L138,125.73231138268824L141,126.87819504559197L144,127.70336827069801L147,128.21079203564605L150,129.32705534508375L153,131.1394041932225L155.99999999999997,132.22794752880918L159,132.59394611592376L162,133.5666448606328L165,134.81098003713294L168,135.9005094797964L171,137.34665977635296L174,138.11481551500918L177,138.88370850184484L180,140.01550683003893L183,140.84900567864122L186,142.1221272916923L189,143.10238471707908L192,144.19269473218003L195,145.1249623098635L198,145.73791223775092L201,146.70394750662976L204,147.7705486072001L207,148.72405461892464L210,149.89586650302624L213,150.71075892586578L216,152.17483726323852L219,153.0055873051044L222,154.17735942343128L225,155.29964733045796L228,156.34120218134927L231,157.33742541281373L234,158.03907543116355L237,158.6603135583351L240,159.582566109614L243,160.5166418625145L246,161.68237530684982L249.00000000000003,162.48305650489723L252,163.89544348834966" style="fill: none;" fill="none"></path></g></g></g></g><g opacity="0.2"><g><g><g><path stroke="rgb(255, 112, 67)" stroke-width="2.352941px" d="M33,-25.90657398670113L36,4.269213280307936L38.99999999999999,26.16311657242479L42,36.70614164788278L45,43.451851949960535L48,48.61975734587759L51,54.10942884893823L54,63.02267590837021L57,70.55259808565357L60,75.56959497010602L63,77.67193457876732L66,81.7304147001622L69,86.82059590205817L72,90.19197229661846L75,93.68441834580153L77.99999999999999,94.92790184299729L81,98.86414437471625L84,99.69806884032941L87,100.44128996270177L90,104.72046271498715L93,106.43533045093396L96,107.44387062582454L99,109.11641013492566L102,110.6276992560431L105,111.10117447529252L108,114.42907354561612L111,115.87381862519709L114,117.19733393002701L117,119.10469431662932L120,121.10931355289982L123,121.58809157404382L126,123.499643340474L129,123.23752669052088L132,124.86342414814447L135,127.0138751459308L138,127.28768998407759L141,128.59702052931036L144,128.941128103761L147,128.97192768137236L150,131.00145030700202L153,133.85792746325023L155.99999999999997,133.86076253140345L159,133.14294399643717L162,135.0256929774436L165,136.6774828016891L168,137.53480364368963L171,139.51588522110666L174,139.26704912296762L177,140.03704798208284L180,141.7132043223163L183,142.09925395153863L186,144.03180971126338L189,144.5727708551567L192,145.82815975482976L195,146.52336367638782L198,146.65733712958172L201,148.1530004099477L204,149.37045025805543L207,150.1543136365113L210,151.65358432917856L213,151.93309756012502L216,154.37095476929764L219,154.25171236790317L222,155.93501760092164L225,156.98307919099796L228,157.90353445768622L231,158.8317602600104L234,159.0915504586883L237,159.59217074909247L240,160.96594493653225L243,161.91775549186525L246,163.43097547335285L249.00000000000003,163.68407830196833L252,166.0140239635283" style="fill: none;" fill="none"></path></g></g></g></g></g></g><g transform="translate(60, 176)" clip-path="url(#clip_1)"><clipPath id="clip_1"><rect width="270" height="23"></rect></clipPath><g><g><line x1="0" y1="0" x2="0" y2="5" style="visibility: inherit;" fill="rgb(0, 0, 0)" stroke="rgb(204, 204, 204)" stroke-width="1.176471px"></line><line x1="30" y1="0" x2="30" y2="5" style="visibility: inherit;" fill="rgb(0, 0, 0)" stroke="rgb(204, 204, 204)" stroke-width="1.176471px"></line><line x1="60" y1="0" x2="60" y2="5" style="visibility: inherit;" fill="rgb(0, 0, 0)" stroke="rgb(204, 204, 204)" stroke-width="1.176471px"></line><line x1="90" y1="0" x2="90" y2="5" style="visibility: inherit;" fill="rgb(0, 0, 0)" stroke="rgb(204, 204, 204)" stroke-width="1.176471px"></line><line x1="120" y1="0" x2="120" y2="5" style="visibility: inherit;" fill="rgb(0, 0, 0)" stroke="rgb(204, 204, 204)" stroke-width="1.176471px"></line><line x1="150" y1="0" x2="150" y2="5" style="visibility: inherit;" fill="rgb(0, 0, 0)" stroke="rgb(204, 204, 204)" stroke-width="1.176471px"></line><line x1="180" y1="0" x2="180" y2="5" style="visibility: inherit;" fill="rgb(0, 0, 0)" stroke="rgb(204, 204, 204)" stroke-width="1.176471px"></line><line x1="210" y1="0" x2="210" y2="5" style="visibility: inherit;" fill="rgb(0, 0, 0)" stroke="rgb(204, 204, 204)" stroke-width="1.176471px"></line><line x1="240" y1="0" x2="240" y2="5" style="visibility: inherit;" fill="rgb(0, 0, 0)" stroke="rgb(204, 204, 204)" stroke-width="1.176471px"></line><line x1="270" y1="0" x2="270" y2="5" style="visibility: inherit;" fill="rgb(0, 0, 0)" stroke="rgb(204, 204, 204)" stroke-width="1.176471px"></line></g><g transform="translate(0, 8)"><text x="0" y="0" dx="0em" dy="0.95em" style="text-anchor: middle; visibility: hidden; font-family: Roboto, sans-serif; font-size: 14.117646px; font-weight: 200;" fill="rgb(255, 255, 255)" stroke="none" stroke-width="1.176471px">-10</text><text x="30" y="0" dx="0em" dy="0.95em" style="text-anchor: middle; visibility: inherit; font-family: Roboto, sans-serif; font-size: 14.117646px; font-weight: 200;" fill="rgb(255, 255, 255)" stroke="none" stroke-width="1.176471px">0</text><text x="60" y="0" dx="0em" dy="0.95em" style="text-anchor: middle; visibility: inherit; font-family: Roboto, sans-serif; font-size: 14.117646px; font-weight: 200;" fill="rgb(255, 255, 255)" stroke="none" stroke-width="1.176471px">10</text><text x="90" y="0" dx="0em" dy="0.95em" style="text-anchor: middle; visibility: inherit; font-family: Roboto, sans-serif; font-size: 14.117646px; font-weight: 200;" fill="rgb(255, 255, 255)" stroke="none" stroke-width="1.176471px">20</text><text x="120" y="0" dx="0em" dy="0.95em" style="text-anchor: middle; visibility: inherit; font-family: Roboto, sans-serif; font-size: 14.117646px; font-weight: 200;" fill="rgb(255, 255, 255)" stroke="none" stroke-width="1.176471px">30</text><text x="150" y="0" dx="0em" dy="0.95em" style="text-anchor: middle; visibility: inherit; font-family: Roboto, sans-serif; font-size: 14.117646px; font-weight: 200;" fill="rgb(255, 255, 255)" stroke="none" stroke-width="1.176471px">40</text><text x="180" y="0" dx="0em" dy="0.95em" style="text-anchor: middle; visibility: inherit; font-family: Roboto, sans-serif; font-size: 14.117646px; font-weight: 200;" fill="rgb(255, 255, 255)" stroke="none" stroke-width="1.176471px">50</text><text x="210" y="0" dx="0em" dy="0.95em" style="text-anchor: middle; visibility: inherit; font-family: Roboto, sans-serif; font-size: 14.117646px; font-weight: 200;" fill="rgb(255, 255, 255)" stroke="none" stroke-width="1.176471px">60</text><text x="240" y="0" dx="0em" dy="0.95em" style="text-anchor: middle; visibility: inherit; font-family: Roboto, sans-serif; font-size: 14.117646px; font-weight: 200;" fill="rgb(255, 255, 255)" stroke="none" stroke-width="1.176471px">70</text><text x="270" y="0" dx="0em" dy="0.95em" style="text-anchor: middle; visibility: hidden; font-family: Roboto, sans-serif; font-size: 14.117646px; font-weight: 200;" fill="rgb(255, 255, 255)" stroke="none" stroke-width="1.176471px">80</text></g><line x1="0" y1="0" x2="270" y2="0" fill="rgb(0, 0, 0)" stroke="rgb(204, 204, 204)" stroke-width="1.176471px"></line></g></g></g></g></svg>